<svg width="212" height="172" viewBox="0 0 212 172" fill="none" xmlns="http://www.w3.org/2000/svg">
<path d="M201 119.78C204.233 120.572 207.575 120.98 211 120.98H191C187.542 120.98 184.192 120.322 181 119.088C173.225 116.088 166.367 109.688 161.175 100.98C161.117 100.88 161.05 100.78 161 100.68C157.633 94.9799 154.992 88.3049 153.275 80.9799C151.8 74.7216 151 67.9883 151 60.9799C151 53.9716 151.8 47.2383 153.275 40.9799C154.983 33.6549 157.633 26.9799 161 21.2799C161.058 21.1799 161.125 21.0799 161.175 20.9799C166.367 12.2716 173.217 5.87159 181 2.87159C184.192 1.63825 187.542 0.979919 191 0.979919H211C207.575 0.979919 204.233 1.38825 201 2.17992C193.608 3.97159 186.808 7.72159 181 12.9549C178.358 15.3299 175.925 18.0216 173.725 20.9799C169.425 26.7466 166.033 33.5216 163.85 40.9799C162.008 47.2383 161.008 53.9716 161.008 60.9799C161.008 67.9883 162.008 74.7216 163.85 80.9799C166.042 88.4383 169.425 95.2133 173.725 100.98C175.925 103.938 178.358 106.622 181 109.005C186.808 114.238 193.608 117.997 201 119.78Z" fill="#00110F"/>
<path d="M61 120.98H1V0.979939H51C48.675 0.979939 44.7583 5.7466 41 13.7466C39.975 15.9216 38.9667 18.3466 38.0083 20.9799C35.8833 26.7466 34 33.5216 32.7167 40.9799C31.6417 47.2383 30.9917 53.9716 30.9917 60.9799C30.9917 67.9883 31.5917 74.7216 32.7 80.9799C34.0083 88.4383 36.0417 95.2133 38.625 100.98C39.3667 102.655 40.1583 104.238 40.9917 105.722C46.3 115.213 53.3 120.98 60.9917 120.98H61Z" fill="#00110F"/>
<path d="M161 115.655C164.559 119.08 168.059 120.98 171 120.98H151C148.059 120.98 144.559 119.08 141 115.655C137.392 112.197 133.734 107.163 130.542 100.98C127.567 95.2133 125.009 88.4383 123.284 80.9799C121.842 74.7216 120.992 67.9883 120.992 60.9799C120.992 53.9716 121.834 47.2383 123.284 40.9799C125.009 33.5216 127.559 26.7466 130.542 20.9799C133.734 14.7883 137.384 9.75492 141 6.30492C144.559 2.87992 148.059 0.979919 151 0.979919H171C168.059 0.979919 164.559 2.87992 161 6.30492C157.392 9.76325 153.734 14.7966 150.542 20.9799C147.567 26.7466 145.009 33.5216 143.284 40.9799C141.842 47.2383 140.992 53.9716 140.992 60.9799C140.992 67.9883 141.834 74.7216 143.284 80.9799C145.009 88.4383 147.559 95.2133 150.542 100.98C153.734 107.172 157.384 112.205 161 115.655Z" fill="#00110F"/>
<path d="M141 120.98H121C113.308 120.98 106.308 115.213 101 105.722C100.167 104.23 99.3748 102.655 98.6332 100.98C96.0582 95.2133 94.0248 88.4383 92.7082 80.9799C91.5998 74.7216 90.9998 67.9883 90.9998 60.9799C90.9998 53.9716 91.5998 47.2383 92.7082 40.9799C94.0165 33.5216 96.0498 26.7466 98.6332 20.9799C99.3748 19.3049 100.167 17.7216 101 16.2383C106.308 6.74659 113.308 0.979919 121 0.979919H141C133.308 0.979919 126.308 6.74659 121 16.2383C120.167 17.7299 119.375 19.3049 118.633 20.9799C116.058 26.7466 114.025 33.5216 112.708 40.9799C111.6 47.2383 111 53.9716 111 60.9799C111 67.9883 111.6 74.7216 112.708 80.9799C114.017 88.4383 116.05 95.2133 118.633 100.98C119.375 102.655 120.167 104.238 121 105.722C126.308 115.213 133.308 120.98 141 120.98Z" fill="#00110F"/>
<path d="M101 117.572C104.125 119.78 107.492 120.98 111 120.98H81C73.3083 120.98 66.3083 115.213 61 105.722C60.1666 104.23 59.375 102.655 58.6333 100.98C56.0583 95.2133 54.025 88.4383 52.7083 80.9799C51.6 74.7216 51 67.9883 51 60.9799C51 53.9716 51.6 47.2383 52.7083 40.9799C54.0166 33.5216 56.05 26.7466 58.6333 20.9799C59.375 19.3049 60.1666 17.7216 61 16.2383C66.3083 6.74658 73.3083 0.979919 81 0.979919H111C107.492 0.979919 104.125 2.17992 101 4.38825C96.2 7.77992 91.9583 13.5299 88.6333 20.9799C86.0583 26.7466 84.025 33.5216 82.7083 40.9799C81.6 47.2383 81 53.9716 81 60.9799C81 67.9883 81.6 74.7216 82.7083 80.9799C84.0166 88.4383 86.05 95.2133 88.6333 100.98C91.9583 108.422 96.2 114.18 101 117.572Z" fill="#00110F"/>
<path d="M0.476074 170.58V141.78H6.63607V170.58H0.476074ZM4.67607 155.62L17.6361 141.78H25.8361L12.1561 155.62H4.67607ZM18.2761 170.58L4.59607 155.62H12.1561L26.6361 170.58H18.2761Z" fill="#00110F"/>
<path d="M29.7433 170.58V141.78H35.7433V170.58H29.7433Z" fill="#00110F"/>
<path d="M40.5245 170.58V150.18H46.5245V170.58H40.5245ZM40.3245 147.46V140.98H46.7245V147.46H40.3245Z" fill="#00110F"/>
<path d="M51.3058 170.58V150.18H57.1858V154.98H57.3058V170.58H51.3058ZM57.3058 159.94L56.7858 155.1C57.2658 153.367 58.0524 152.047 59.1458 151.14C60.2391 150.233 61.5991 149.78 63.2258 149.78C63.7324 149.78 64.1058 149.833 64.3458 149.94V155.54C64.2124 155.487 64.0258 155.46 63.7858 155.46C63.5458 155.433 63.2524 155.42 62.9058 155.42C60.9858 155.42 59.5724 155.767 58.6658 156.46C57.7591 157.127 57.3058 158.287 57.3058 159.94Z" fill="#00110F"/>
<path d="M79.3411 170.58C79.1811 169.993 79.0611 169.367 78.9811 168.7C78.9277 168.033 78.9011 167.26 78.9011 166.38H78.7411V156.74C78.7411 155.913 78.4611 155.273 77.9011 154.82C77.3677 154.34 76.5677 154.1 75.5011 154.1C74.4877 154.1 73.6744 154.273 73.0611 154.62C72.4744 154.967 72.0877 155.473 71.9011 156.14H66.1811C66.4477 154.3 67.3944 152.78 69.0211 151.58C70.6477 150.38 72.8744 149.78 75.7011 149.78C78.6344 149.78 80.8744 150.433 82.4211 151.74C83.9677 153.047 84.7411 154.927 84.7411 157.38V166.38C84.7411 167.047 84.7811 167.727 84.8611 168.42C84.9677 169.087 85.1277 169.807 85.3411 170.58H79.3411ZM72.2211 170.98C70.1944 170.98 68.5811 170.473 67.3811 169.46C66.1811 168.42 65.5811 167.047 65.5811 165.34C65.5811 163.447 66.2877 161.927 67.7011 160.78C69.1411 159.607 71.1411 158.847 73.7011 158.5L79.6611 157.66V161.14L74.7011 161.9C73.6344 162.06 72.8477 162.353 72.3411 162.78C71.8344 163.207 71.5811 163.793 71.5811 164.54C71.5811 165.207 71.8211 165.713 72.3011 166.06C72.7811 166.407 73.4211 166.58 74.2211 166.58C75.4744 166.58 76.5411 166.247 77.4211 165.58C78.3011 164.887 78.7411 164.087 78.7411 163.18L79.3011 166.38C78.7144 167.9 77.8211 169.047 76.6211 169.82C75.4211 170.593 73.9544 170.98 72.2211 170.98Z" fill="#00110F"/>
<path d="M99.6989 170.94C95.9656 170.94 92.9789 170.113 90.7389 168.46C88.4989 166.78 87.1922 164.42 86.8189 161.38H92.7389C92.9256 162.927 93.6722 164.153 94.9789 165.06C96.2856 165.94 97.9522 166.38 99.9789 166.38C101.632 166.38 102.899 166.087 103.779 165.5C104.686 164.913 105.139 164.127 105.139 163.14C105.139 162.207 104.872 161.46 104.339 160.9C103.806 160.313 102.886 159.847 101.579 159.5L96.2189 158.02C93.4722 157.247 91.4589 156.193 90.1789 154.86C88.9256 153.5 88.2989 151.807 88.2989 149.78C88.2989 148.047 88.7389 146.553 89.6189 145.3C90.5256 144.02 91.7922 143.047 93.4189 142.38C95.0455 141.687 96.9522 141.34 99.1389 141.34C102.499 141.34 105.179 142.14 107.179 143.74C109.179 145.313 110.312 147.407 110.579 150.02H104.659C104.392 148.607 103.739 147.567 102.699 146.9C101.686 146.233 100.379 145.9 98.7789 145.9C97.3922 145.9 96.2856 146.167 95.4589 146.7C94.6322 147.233 94.2189 147.953 94.2189 148.86C94.2189 149.553 94.4456 150.193 94.8989 150.78C95.3522 151.34 96.2989 151.82 97.7389 152.22L103.099 153.7C105.926 154.473 107.952 155.54 109.179 156.9C110.432 158.233 111.059 159.927 111.059 161.98C111.059 164.86 110.059 167.073 108.059 168.62C106.059 170.167 103.272 170.94 99.6989 170.94Z" fill="#00110F"/>
<path d="M123.837 171.02C121.224 171.02 119.277 170.393 117.997 169.14C116.744 167.86 116.117 165.927 116.117 163.34V145.62L122.117 143.38V163.54C122.117 164.447 122.371 165.127 122.877 165.58C123.384 166.033 124.171 166.26 125.237 166.26C125.637 166.26 126.011 166.22 126.357 166.14C126.704 166.06 127.051 165.967 127.397 165.86V170.42C127.051 170.607 126.557 170.753 125.917 170.86C125.304 170.967 124.611 171.02 123.837 171.02ZM112.317 154.74V150.18H127.397V154.74H112.317Z" fill="#00110F"/>
<path d="M137.125 170.98C135.685 170.98 134.445 170.673 133.405 170.06C132.391 169.42 131.618 168.58 131.085 167.54C130.551 166.473 130.285 165.287 130.285 163.98V150.18H136.285V162.82C136.285 163.94 136.565 164.78 137.125 165.34C137.685 165.9 138.471 166.18 139.485 166.18C140.391 166.18 141.191 165.967 141.885 165.54C142.578 165.113 143.125 164.527 143.525 163.78C143.951 163.007 144.165 162.127 144.165 161.14L144.685 166.06C144.018 167.527 143.045 168.713 141.765 169.62C140.485 170.527 138.938 170.98 137.125 170.98ZM144.285 170.58V165.78H144.165V150.18H150.165V170.58H144.285Z" fill="#00110F"/>
<path d="M169.183 170.58V166.06L169.583 166.14C169.317 167.607 168.517 168.78 167.183 169.66C165.877 170.54 164.303 170.98 162.463 170.98C160.597 170.98 158.97 170.553 157.583 169.7C156.223 168.82 155.17 167.593 154.423 166.02C153.677 164.447 153.303 162.593 153.303 160.46C153.303 158.3 153.69 156.42 154.463 154.82C155.237 153.22 156.317 151.98 157.703 151.1C159.117 150.22 160.757 149.78 162.623 149.78C164.57 149.78 166.143 150.233 167.343 151.14C168.57 152.047 169.29 153.287 169.503 154.86L169.063 154.9V141.78H175.063V170.58H169.183ZM164.383 166.18C165.797 166.18 166.943 165.687 167.823 164.7C168.703 163.687 169.143 162.247 169.143 160.38C169.143 158.513 168.69 157.087 167.783 156.1C166.903 155.087 165.743 154.58 164.303 154.58C162.917 154.58 161.77 155.087 160.863 156.1C159.983 157.113 159.543 158.553 159.543 160.42C159.543 162.287 159.983 163.713 160.863 164.7C161.77 165.687 162.943 166.18 164.383 166.18Z" fill="#00110F"/>
<path d="M179.86 170.58V150.18H185.86V170.58H179.86ZM179.66 147.46V140.98H186.06V147.46H179.66Z" fill="#00110F"/>
<path d="M200.244 170.98C198.004 170.98 196.03 170.54 194.324 169.66C192.644 168.753 191.324 167.5 190.364 165.9C189.43 164.273 188.964 162.407 188.964 160.3C188.964 158.193 189.43 156.353 190.364 154.78C191.324 153.207 192.644 151.98 194.324 151.1C196.03 150.22 198.004 149.78 200.244 149.78C202.51 149.78 204.484 150.22 206.164 151.1C207.87 151.98 209.19 153.207 210.124 154.78C211.057 156.353 211.524 158.193 211.524 160.3C211.524 162.407 211.044 164.273 210.084 165.9C209.15 167.5 207.83 168.753 206.124 169.66C204.444 170.54 202.484 170.98 200.244 170.98ZM200.244 166.26C201.177 166.26 202.017 166.02 202.764 165.54C203.537 165.06 204.15 164.38 204.604 163.5C205.057 162.593 205.284 161.513 205.284 160.26C205.284 158.42 204.79 157.007 203.804 156.02C202.844 155.007 201.657 154.5 200.244 154.5C198.83 154.5 197.63 155.007 196.644 156.02C195.684 157.033 195.204 158.447 195.204 160.26C195.204 161.513 195.43 162.593 195.884 163.5C196.337 164.38 196.937 165.06 197.684 165.54C198.457 166.02 199.31 166.26 200.244 166.26Z" fill="#00110F"/>
</svg>
