<svg width="212" height="31" viewBox="0 0 212 31" fill="none" xmlns="http://www.w3.org/2000/svg">
<path d="M0 29.7336V0.80361H6.18781V29.7336H0ZM4.21896 14.7061L17.2375 0.80361H25.4745L11.7327 14.7061H4.21896ZM17.8803 29.7336L4.1386 14.7061H11.7327L26.2781 29.7336H17.8803Z" fill="#00110F"/>
<path d="M29.3993 29.7336V0.80361H35.4264V29.7336H29.3993Z" fill="#00110F"/>
<path d="M40.2292 29.7336V9.24153H46.2563V29.7336H40.2292ZM40.0283 6.50925V0H46.4572V6.50925H40.0283Z" fill="#00110F"/>
<path d="M51.0591 29.7336V9.24153H56.9657V14.0632H57.0862V29.7336H51.0591ZM57.0862 19.0456L56.5639 14.1837C57.046 12.4426 57.8362 11.1166 58.9345 10.2059C60.0328 9.2951 61.3989 8.83972 63.0329 8.83972C63.5419 8.83972 63.9169 8.8933 64.158 9.00044V14.6257C64.024 14.5721 63.8365 14.5454 63.5955 14.5454C63.3544 14.5186 63.0597 14.5052 62.7115 14.5052C60.7828 14.5052 59.3631 14.8534 58.4523 15.5499C57.5416 16.2195 57.0862 17.3848 57.0862 19.0456Z" fill="#00110F"/>
<path d="M79.221 29.7336C79.0603 29.1443 78.9397 28.5148 78.8594 27.8451C78.8058 27.1754 78.779 26.3986 78.779 25.5147H78.6183V15.8311C78.6183 15.0007 78.337 14.3579 77.7745 13.9025C77.2387 13.4203 76.4351 13.1792 75.3637 13.1792C74.3457 13.1792 73.5287 13.3533 72.9126 13.7016C72.3233 14.0498 71.9349 14.5588 71.7474 15.2284H66.0016C66.2695 13.3801 67.2204 11.8533 68.8544 10.6478C70.4884 9.44243 72.7251 8.83972 75.5646 8.83972C78.5111 8.83972 80.7612 9.496 82.3149 10.8086C83.8685 12.1211 84.6454 14.0096 84.6454 16.474V25.5147C84.6454 26.1843 84.6855 26.8674 84.7659 27.5639C84.8731 28.2335 85.0338 28.9568 85.2481 29.7336H79.221ZM72.0688 30.1354C70.033 30.1354 68.4124 29.6265 67.207 28.6086C66.0016 27.5639 65.3989 26.1843 65.3989 24.47C65.3989 22.5681 66.1087 21.0412 67.5284 19.8894C68.9749 18.7107 70.984 17.9473 73.5555 17.5991L79.5424 16.7553V20.251L74.56 21.0144C73.4886 21.1752 72.6983 21.4698 72.1894 21.8984C71.6804 22.327 71.426 22.9163 71.426 23.6663C71.426 24.336 71.667 24.845 72.1492 25.1932C72.6314 25.5414 73.2743 25.7156 74.0779 25.7156C75.3369 25.7156 76.4083 25.3807 77.2923 24.711C78.1763 24.0146 78.6183 23.211 78.6183 22.3002L79.1808 25.5147C78.5915 27.0415 77.6941 28.1934 76.4887 28.9702C75.2833 29.747 73.81 30.1354 72.0688 30.1354Z" fill="#00110F"/>
<path d="M99.6707 30.0952C95.9205 30.0952 92.9204 29.2648 90.6702 27.604C88.4201 25.9165 87.1076 23.5458 86.7326 20.4921H92.6793C92.8668 22.0457 93.6168 23.2779 94.9294 24.1887C96.2419 25.0727 97.9161 25.5147 99.952 25.5147C101.613 25.5147 102.885 25.22 103.769 24.6307C104.68 24.0414 105.135 23.2511 105.135 22.26C105.135 21.3225 104.867 20.5724 104.332 20.0099C103.796 19.4206 102.872 18.9518 101.559 18.6036L96.175 17.1169C93.4159 16.3401 91.3935 15.282 90.1077 13.9427C88.8487 12.5765 88.2192 10.8755 88.2192 8.83972C88.2192 7.09856 88.6612 5.59849 89.5452 4.3395C90.456 3.05372 91.7283 2.07599 93.3623 1.40632C94.9963 0.709856 96.9116 0.361625 99.1082 0.361625C102.483 0.361625 105.175 1.16524 107.184 2.77246C109.193 4.35289 110.332 6.45568 110.6 9.08081H104.653C104.385 7.66109 103.729 6.6164 102.684 5.94672C101.666 5.27705 100.354 4.94221 98.7465 4.94221C97.3536 4.94221 96.2419 5.21008 95.4115 5.74582C94.5812 6.28156 94.166 7.00481 94.166 7.91557C94.166 8.61203 94.3936 9.25492 94.849 9.84423C95.3044 10.4068 96.2553 10.8889 97.7018 11.2907L103.086 12.7774C105.925 13.5542 107.961 14.6257 109.193 15.9919C110.452 17.3312 111.082 19.0322 111.082 21.0948C111.082 23.9878 110.077 26.2111 108.068 27.7648C106.059 29.3184 103.26 30.0952 99.6707 30.0952Z" fill="#00110F"/>
<path d="M123.918 30.1756C121.293 30.1756 119.337 29.5461 118.052 28.2871C116.793 27.0013 116.163 25.0593 116.163 22.4609V4.66094L122.19 2.41083V22.6618C122.19 23.5726 122.445 24.2557 122.954 24.711C123.463 25.1664 124.253 25.3941 125.324 25.3941C125.726 25.3941 126.101 25.3539 126.449 25.2736C126.798 25.1932 127.146 25.0995 127.494 24.9923V29.5729C127.146 29.7604 126.65 29.9077 126.007 30.0149C125.391 30.122 124.695 30.1756 123.918 30.1756ZM112.346 13.8221V9.24153H127.494V13.8221H112.346Z" fill="#00110F"/>
<path d="M137.265 30.1354C135.819 30.1354 134.573 29.8274 133.528 29.2113C132.511 28.5684 131.734 27.7246 131.198 26.6799C130.662 25.6084 130.394 24.4164 130.394 23.1038V9.24153H136.421V21.9386C136.421 23.0636 136.703 23.9074 137.265 24.47C137.828 25.0325 138.618 25.3137 139.636 25.3137C140.547 25.3137 141.35 25.0995 142.047 24.6709C142.743 24.2423 143.292 23.653 143.694 22.9029C144.123 22.1261 144.337 21.2421 144.337 20.251L144.859 25.1932C144.19 26.6665 143.212 27.8585 141.926 28.7693C140.64 29.68 139.087 30.1354 137.265 30.1354ZM144.458 29.7336V24.9119H144.337V9.24153H150.364V29.7336H144.458Z" fill="#00110F"/>
<path d="M169.469 29.7336V25.1932L169.871 25.2736C169.603 26.7469 168.799 27.9255 167.46 28.8095C166.147 29.6934 164.567 30.1354 162.718 30.1354C160.843 30.1354 159.209 29.7068 157.816 28.8496C156.45 27.9657 155.392 26.7335 154.642 25.153C153.892 23.5726 153.517 21.7109 153.517 19.5679C153.517 17.3982 153.905 15.5097 154.682 13.9025C155.459 12.2952 156.544 11.0497 157.937 10.1657C159.357 9.28171 161.004 8.83972 162.879 8.83972C164.835 8.83972 166.415 9.2951 167.62 10.2059C168.853 11.1166 169.576 12.3622 169.79 13.9427L169.348 13.9828V0.80361H175.375V29.7336H169.469ZM164.647 25.3137C166.067 25.3137 167.219 24.8182 168.103 23.8271C168.987 22.8092 169.429 21.3627 169.429 19.4876C169.429 17.6125 168.973 16.1794 168.062 15.1882C167.178 14.1703 166.013 13.6614 164.567 13.6614C163.174 13.6614 162.022 14.1703 161.111 15.1882C160.227 16.2062 159.785 17.6527 159.785 19.5277C159.785 21.4028 160.227 22.8359 161.111 23.8271C162.022 24.8182 163.201 25.3137 164.647 25.3137Z" fill="#00110F"/>
<path d="M180.194 29.7336V9.24153H186.221V29.7336H180.194ZM179.993 6.50925V0H186.422V6.50925H179.993Z" fill="#00110F"/>
<path d="M200.669 30.1354C198.419 30.1354 196.437 29.6934 194.723 28.8095C193.035 27.8987 191.709 26.6397 190.745 25.0325C189.807 23.3985 189.338 21.5234 189.338 19.4072C189.338 17.291 189.807 15.4427 190.745 13.8623C191.709 12.2819 193.035 11.0497 194.723 10.1657C196.437 9.28171 198.419 8.83972 200.669 8.83972C202.946 8.83972 204.928 9.28171 206.616 10.1657C208.33 11.0497 209.656 12.2819 210.594 13.8623C211.531 15.4427 212 17.291 212 19.4072C212 21.5234 211.518 23.3985 210.554 25.0325C209.616 26.6397 208.29 27.8987 206.576 28.8095C204.888 29.6934 202.919 30.1354 200.669 30.1354ZM200.669 25.3941C201.607 25.3941 202.451 25.153 203.201 24.6709C203.977 24.1887 204.594 23.5056 205.049 22.6217C205.504 21.7109 205.732 20.626 205.732 19.367C205.732 17.5187 205.236 16.099 204.245 15.1079C203.281 14.09 202.089 13.581 200.669 13.581C199.25 13.581 198.044 14.09 197.053 15.1079C196.089 16.1258 195.606 17.5455 195.606 19.367C195.606 20.626 195.834 21.7109 196.29 22.6217C196.745 23.5056 197.348 24.1887 198.098 24.6709C198.874 25.153 199.732 25.3941 200.669 25.3941Z" fill="#00110F"/>
</svg>
