<svg width="210" height="120" viewBox="0 0 210 120" fill="none" xmlns="http://www.w3.org/2000/svg">
<path d="M200 118.8C203.233 119.592 206.575 120 210 120H190C186.542 120 183.192 119.342 180 118.108C172.225 115.108 165.367 108.708 160.175 100C160.117 99.9 160.05 99.8 160 99.7C156.633 94 153.992 87.325 152.275 80C150.8 73.7417 150 67.0083 150 60C150 52.9917 150.8 46.2583 152.275 40C153.983 32.675 156.633 26 160 20.3C160.058 20.2 160.125 20.1 160.175 20C165.367 11.2917 172.217 4.89167 180 1.89167C183.192 0.658333 186.542 0 190 0H210C206.575 0 203.233 0.408333 200 1.2C192.608 2.99167 185.808 6.74167 180 11.975C177.358 14.35 174.925 17.0417 172.725 20C168.425 25.7667 165.033 32.5417 162.85 40C161.008 46.2583 160.008 52.9917 160.008 60C160.008 67.0083 161.008 73.7417 162.85 80C165.042 87.4583 168.425 94.2333 172.725 100C174.925 102.958 177.358 105.642 180 108.025C185.808 113.258 192.608 117.017 200 118.8Z" fill="url(#paint0_linear_0_3)"/>
<path d="M60 120H0V1.90735e-05H50C47.675 1.90735e-05 43.7583 4.76669 40 12.7667C38.975 14.9417 37.9667 17.3667 37.0083 20C34.8833 25.7667 33 32.5417 31.7167 40C30.6417 46.2584 29.9917 52.9917 29.9917 60C29.9917 67.0084 30.5917 73.7417 31.7 80C33.0083 87.4584 35.0417 94.2334 37.625 100C38.3667 101.675 39.1583 103.258 39.9917 104.742C45.3 114.233 52.3 120 59.9917 120H60Z" fill="url(#paint1_linear_0_3)"/>
<path d="M160 114.675C163.559 118.1 167.059 120 170 120H150C147.059 120 143.559 118.1 140 114.675C136.392 111.217 132.734 106.183 129.542 100C126.567 94.2333 124.009 87.4583 122.284 80C120.842 73.7417 119.992 67.0083 119.992 60C119.992 52.9917 120.834 46.2583 122.284 40C124.009 32.5417 126.559 25.7667 129.542 20C132.734 13.8083 136.384 8.775 140 5.325C143.559 1.9 147.059 0 150 0H170C167.059 0 163.559 1.9 160 5.325C156.392 8.78333 152.734 13.8167 149.542 20C146.567 25.7667 144.009 32.5417 142.284 40C140.842 46.2583 139.992 52.9917 139.992 60C139.992 67.0083 140.834 73.7417 142.284 80C144.009 87.4583 146.559 94.2333 149.542 100C152.734 106.192 156.384 111.225 160 114.675Z" fill="url(#paint2_linear_0_3)"/>
<path d="M140 120H120C112.308 120 105.308 114.233 99.9998 104.742C99.1665 103.25 98.3748 101.675 97.6332 100C95.0582 94.2333 93.0248 87.4583 91.7082 80C90.5998 73.7417 89.9998 67.0083 89.9998 60C89.9998 52.9917 90.5998 46.2583 91.7082 40C93.0165 32.5417 95.0498 25.7667 97.6332 20C98.3748 18.325 99.1665 16.7417 99.9998 15.2583C105.308 5.76667 112.308 0 120 0H140C132.308 0 125.308 5.76667 120 15.2583C119.167 16.75 118.375 18.325 117.633 20C115.058 25.7667 113.025 32.5417 111.708 40C110.6 46.2583 110 52.9917 110 60C110 67.0083 110.6 73.7417 111.708 80C113.017 87.4583 115.05 94.2333 117.633 100C118.375 101.675 119.167 103.258 120 104.742C125.308 114.233 132.308 120 140 120Z" fill="url(#paint3_linear_0_3)"/>
<path d="M100 116.592C103.125 118.8 106.492 120 110 120H80C72.3083 120 65.3083 114.233 60 104.742C59.1666 103.25 58.375 101.675 57.6333 100C55.0583 94.2333 53.025 87.4583 51.7083 80C50.6 73.7417 50 67.0083 50 60C50 52.9917 50.6 46.2583 51.7083 40C53.0166 32.5417 55.05 25.7667 57.6333 20C58.375 18.325 59.1666 16.7417 60 15.2583C65.3083 5.76667 72.3083 0 80 0H110C106.492 0 103.125 1.2 100 3.40833C95.2 6.8 90.9583 12.55 87.6333 20C85.0583 25.7667 83.025 32.5417 81.7083 40C80.6 46.2583 80 52.9917 80 60C80 67.0083 80.6 73.7417 81.7083 80C83.0166 87.4583 85.05 94.2333 87.6333 100C90.9583 107.442 95.2 113.2 100 116.592Z" fill="url(#paint4_linear_0_3)"/>
<defs>
<linearGradient id="paint0_linear_0_3" x1="105" y1="-15" x2="105" y2="120" gradientUnits="userSpaceOnUse">
<stop stop-color="#00110F"/>
<stop offset="1" stop-color="#007769"/>
</linearGradient>
<linearGradient id="paint1_linear_0_3" x1="105" y1="-15" x2="105" y2="120" gradientUnits="userSpaceOnUse">
<stop stop-color="#00110F"/>
<stop offset="1" stop-color="#007769"/>
</linearGradient>
<linearGradient id="paint2_linear_0_3" x1="105" y1="-15" x2="105" y2="120" gradientUnits="userSpaceOnUse">
<stop stop-color="#00110F"/>
<stop offset="1" stop-color="#007769"/>
</linearGradient>
<linearGradient id="paint3_linear_0_3" x1="105" y1="-15" x2="105" y2="120" gradientUnits="userSpaceOnUse">
<stop stop-color="#00110F"/>
<stop offset="1" stop-color="#007769"/>
</linearGradient>
<linearGradient id="paint4_linear_0_3" x1="105" y1="-15" x2="105" y2="120" gradientUnits="userSpaceOnUse">
<stop stop-color="#00110F"/>
<stop offset="1" stop-color="#007769"/>
</linearGradient>
</defs>
</svg>
